<svg width="28" height="26" viewBox="0 0 28 26" fill="none" xmlns="http://www.w3.org/2000/svg">
<path d="M11.2295 19L12.2127 18.8176C12.1248 18.3437 11.7114 18 11.2295 18V19ZM15.9301 19V18C15.459 18 15.0518 18.3287 14.9525 18.7892L15.9301 19ZM2.10303 5C2.10303 3.34315 3.44617 2 5.10303 2V0C2.3416 0 0.103027 2.23858 0.103027 5H2.10303ZM2.10303 15V5H0.103027V15H2.10303ZM5.10303 18C3.44617 18 2.10303 16.6569 2.10303 15H0.103027C0.103027 17.7614 2.3416 20 5.10303 20V18ZM11.2295 18H5.10303V20H11.2295V18ZM13.603 24C13.9445 24 14.0899 24.2098 14.0211 24.1344C13.9877 24.0978 13.9159 24.0006 13.8142 23.8132C13.6152 23.4469 13.3925 22.9073 13.1712 22.2767C12.7305 21.0209 12.3525 19.5708 12.2127 18.8176L10.2463 19.1824C10.4073 20.0502 10.8142 21.6001 11.2841 22.939C11.5181 23.6058 11.7821 24.2623 12.0566 24.7677C12.1915 25.0161 12.3531 25.2738 12.5441 25.4829C12.6997 25.6534 13.0606 26 13.603 26V24ZM14.9525 18.7892C14.7846 19.5678 14.4114 21.0304 13.987 22.2859C13.7731 22.9189 13.5594 23.4593 13.3674 23.8262C13.2691 24.014 13.2003 24.1098 13.1694 24.1446C13.1033 24.2191 13.2524 24 13.603 24V26C14.1526 26 14.5128 25.6439 14.6652 25.4723C14.8527 25.2611 15.0095 25.0018 15.1395 24.7534C15.404 24.2478 15.657 23.5912 15.8817 22.9263C16.3348 21.5858 16.727 20.0484 16.9076 19.2108L14.9525 18.7892ZM22.103 18H15.9301V20H22.103V18ZM25.103 15C25.103 16.6569 23.7599 18 22.103 18V20C24.8645 20 27.103 17.7614 27.103 15H25.103ZM25.103 5V15H27.103V5H25.103ZM22.103 2C23.7599 2 25.103 3.34315 25.103 5H27.103C27.103 2.23858 24.8645 0 22.103 0V2ZM5.10303 2H22.103V0H5.10303V2Z" fill="#B3A97F"/>
<path d="M20.2287 13.3302C19.882 13.3302 19.562 13.2635 19.2687 13.1302C18.982 12.9902 18.732 12.7969 18.5187 12.5502C18.312 12.3035 18.152 12.0202 18.0387 11.7002C17.9253 11.3802 17.8687 11.0402 17.8687 10.6802C17.8687 10.3002 17.9287 9.94688 18.0487 9.62021C18.1687 9.29355 18.3353 9.00688 18.5487 8.76021C18.7687 8.50688 19.0253 8.31355 19.3187 8.18021C19.6187 8.04021 19.9487 7.97021 20.3087 7.97021C20.7153 7.97021 21.072 8.06355 21.3787 8.25022C21.6853 8.43021 21.9387 8.67355 22.1387 8.98022V8.06021H23.3087V13.0502C23.3087 13.5702 23.182 14.0135 22.9287 14.3802C22.682 14.7535 22.3387 15.0369 21.8987 15.2302C21.4587 15.4302 20.9587 15.5302 20.3987 15.5302C19.832 15.5302 19.352 15.4335 18.9587 15.2402C18.5653 15.0535 18.2287 14.7869 17.9487 14.4402L18.6787 13.7302C18.8787 13.9769 19.1287 14.1702 19.4287 14.3102C19.7353 14.4502 20.0587 14.5202 20.3987 14.5202C20.6853 14.5202 20.9453 14.4669 21.1787 14.3602C21.4187 14.2602 21.6087 14.1002 21.7487 13.8802C21.8953 13.6669 21.9687 13.3902 21.9687 13.0502V12.3902C21.7953 12.6902 21.5487 12.9235 21.2287 13.0902C20.9153 13.2502 20.582 13.3302 20.2287 13.3302ZM20.6787 12.2602C20.8253 12.2602 20.9653 12.2369 21.0987 12.1902C21.232 12.1435 21.3553 12.0802 21.4687 12.0002C21.582 11.9202 21.682 11.8269 21.7687 11.7202C21.8553 11.6069 21.922 11.4935 21.9687 11.3802V10.1302C21.8887 9.92355 21.7753 9.74355 21.6287 9.59022C21.4887 9.43688 21.3287 9.32021 21.1487 9.24021C20.9753 9.15355 20.792 9.11021 20.5987 9.11021C20.392 9.11021 20.2053 9.15355 20.0387 9.24021C19.872 9.32688 19.7287 9.45022 19.6087 9.61022C19.4887 9.76355 19.3953 9.93688 19.3287 10.1302C19.2687 10.3169 19.2387 10.5135 19.2387 10.7202C19.2387 10.9335 19.2753 11.1335 19.3487 11.3202C19.422 11.5069 19.522 11.6702 19.6487 11.8102C19.782 11.9502 19.9353 12.0602 20.1087 12.1402C20.2887 12.2202 20.4787 12.2602 20.6787 12.2602Z" fill="#B3A97F"/>
<path d="M15.0347 13.4002C14.608 13.4002 14.2247 13.3302 13.8847 13.1902C13.5447 13.0435 13.2547 12.8435 13.0147 12.5902C12.7813 12.3369 12.6013 12.0469 12.4747 11.7202C12.348 11.3935 12.2847 11.0502 12.2847 10.6902C12.2847 10.3235 12.348 9.97688 12.4747 9.65022C12.6013 9.32355 12.7813 9.03355 13.0147 8.78021C13.2547 8.52688 13.5447 8.33021 13.8847 8.19021C14.2247 8.04355 14.608 7.97021 15.0347 7.97021C15.4613 7.97021 15.8413 8.04355 16.1747 8.19021C16.5147 8.33021 16.8047 8.52688 17.0447 8.78021C17.2847 9.03355 17.4647 9.32355 17.5847 9.65022C17.7113 9.97688 17.7747 10.3235 17.7747 10.6902C17.7747 11.0502 17.7113 11.3935 17.5847 11.7202C17.4647 12.0469 17.2847 12.3369 17.0447 12.5902C16.8113 12.8435 16.5247 13.0435 16.1847 13.1902C15.8447 13.3302 15.4613 13.4002 15.0347 13.4002ZM13.6647 10.6902C13.6647 10.9969 13.7247 11.2702 13.8447 11.5102C13.9647 11.7435 14.128 11.9269 14.3347 12.0602C14.5413 12.1935 14.7747 12.2602 15.0347 12.2602C15.288 12.2602 15.518 12.1935 15.7247 12.0602C15.9313 11.9202 16.0947 11.7335 16.2147 11.5002C16.3413 11.2602 16.4047 10.9869 16.4047 10.6802C16.4047 10.3802 16.3413 10.1102 16.2147 9.87021C16.0947 9.63022 15.9313 9.44355 15.7247 9.31021C15.518 9.17688 15.288 9.11021 15.0347 9.11021C14.7747 9.11021 14.5413 9.18021 14.3347 9.32021C14.128 9.45355 13.9647 9.64022 13.8447 9.88022C13.7247 10.1135 13.6647 10.3835 13.6647 10.6902Z" fill="#B3A97F"/>
<path d="M11.7031 13.3799L10.3631 13.3799L10.3631 7.75988C10.3631 7.51988 10.3231 7.35655 10.2431 7.26988C10.1631 7.18988 10.0531 7.14988 9.91313 7.14988C9.80646 7.14988 9.69646 7.16322 9.58313 7.18988C9.46979 7.21655 9.36979 7.24988 9.28312 7.28988L9.10313 6.26988C9.28313 6.18322 9.49313 6.11655 9.73313 6.06988C9.97313 6.02322 10.1898 5.99988 10.3831 5.99988C10.8031 5.99988 11.1298 6.10988 11.3631 6.32988C11.5898 6.55655 11.7031 6.87655 11.7031 7.28988L11.7031 13.3799Z" fill="#B3A97F"/>
<path d="M7.08303 13.4C6.68303 13.4 6.32636 13.31 6.01303 13.13C5.69969 12.95 5.45303 12.7033 5.27303 12.39V13.3H4.10303V6H5.44303V8.98C5.62969 8.66667 5.87303 8.42 6.17303 8.24C6.47969 8.06 6.83636 7.97 7.24303 7.97C7.58303 7.97 7.89303 8.04333 8.17303 8.19C8.45303 8.33 8.69303 8.52667 8.89303 8.78C9.09969 9.03333 9.25636 9.32333 9.36303 9.65C9.47636 9.97667 9.53303 10.3267 9.53303 10.7C9.53303 11.0733 9.46969 11.4233 9.34303 11.75C9.22303 12.0767 9.05303 12.3667 8.83303 12.62C8.61303 12.8667 8.35303 13.06 8.05303 13.2C7.75969 13.3333 7.43636 13.4 7.08303 13.4ZM6.71303 12.26C6.92636 12.26 7.11969 12.22 7.29303 12.14C7.47303 12.0533 7.62636 11.94 7.75303 11.8C7.88636 11.66 7.98636 11.4967 8.05303 11.31C8.12636 11.1167 8.16303 10.9167 8.16303 10.71C8.16303 10.4233 8.10303 10.16 7.98303 9.92C7.86969 9.67333 7.70969 9.47667 7.50303 9.33C7.30303 9.18333 7.06636 9.11 6.79303 9.11C6.59969 9.11 6.41303 9.15667 6.23303 9.25C6.05969 9.33667 5.90303 9.45667 5.76303 9.61C5.62969 9.76333 5.52303 9.93667 5.44303 10.13V11.38C5.48303 11.5133 5.54636 11.6333 5.63303 11.74C5.72636 11.8467 5.83303 11.94 5.95303 12.02C6.07303 12.0933 6.19636 12.1533 6.32303 12.2C6.45636 12.24 6.58636 12.26 6.71303 12.26Z" fill="#B3A97F"/>
</svg>
