<svg width="25" height="24" viewBox="0 0 25 24" fill="none" xmlns="http://www.w3.org/2000/svg">
<g clip-path="url(#clip0_559_326)">
<path d="M21.103 2H18.103V0H16.103V2H8.10303V0H6.10303V2H3.10303C2.30738 2 1.54432 2.31607 0.981707 2.87868C0.419098 3.44129 0.103027 4.20435 0.103027 5L0.103027 24H24.103V5C24.103 4.20435 23.787 3.44129 23.2243 2.87868C22.6617 2.31607 21.8987 2 21.103 2ZM2.10303 5C2.10303 4.73478 2.20838 4.48043 2.39592 4.29289C2.58346 4.10536 2.83781 4 3.10303 4H21.103C21.3682 4 21.6226 4.10536 21.8101 4.29289C21.9977 4.48043 22.103 4.73478 22.103 5V8H2.10303V5ZM2.10303 22V10H22.103V22H2.10303Z" fill="#B3A97F"/>
<path d="M17.103 13H15.103V15H17.103V13Z" fill="#B3A97F"/>
<path d="M13.1033 13H11.1033V15H13.1033V13Z" fill="#B3A97F"/>
<path d="M9.10278 13H7.10278V15H9.10278V13Z" fill="#B3A97F"/>
<path d="M17.103 17H15.103V19H17.103V17Z" fill="#B3A97F"/>
<path d="M13.1033 17H11.1033V19H13.1033V17Z" fill="#B3A97F"/>
<path d="M9.10278 17H7.10278V19H9.10278V17Z" fill="#B3A97F"/>
</g>
<defs>
<clipPath id="clip0_559_326">
<rect width="24" height="24" fill="white" transform="translate(0.103027)"/>
</clipPath>
</defs>
</svg>
