<svg width="22" height="23" viewBox="0 0 22 23" fill="none" xmlns="http://www.w3.org/2000/svg">
<g clip-path="url(#clip0_456_252)">
<path d="M19.25 2.33333H16.5V0.5H14.6667V2.33333H7.33333V0.5H5.5V2.33333H2.75C2.02065 2.33333 1.32118 2.62306 0.805456 3.13879C0.289731 3.65451 0 4.35399 0 5.08333L0 22.5H22V5.08333C22 4.35399 21.7103 3.65451 21.1945 3.13879C20.6788 2.62306 19.9793 2.33333 19.25 2.33333ZM1.83333 5.08333C1.83333 4.84022 1.92991 4.60706 2.10182 4.43515C2.27373 4.26324 2.50688 4.16667 2.75 4.16667H19.25C19.4931 4.16667 19.7263 4.26324 19.8982 4.43515C20.0701 4.60706 20.1667 4.84022 20.1667 5.08333V7.83333H1.83333V5.08333ZM1.83333 20.6667V9.66667H20.1667V20.6667H1.83333Z" fill="white"/>
<path d="M15.5833 12.417H13.75V14.2503H15.5833V12.417Z" fill="white"/>
<path d="M11.9168 12.417H10.0835V14.2503H11.9168V12.417Z" fill="white"/>
<path d="M8.24983 12.417H6.4165V14.2503H8.24983V12.417Z" fill="white"/>
<path d="M15.5833 16.083H13.75V17.9164H15.5833V16.083Z" fill="white"/>
<path d="M11.9168 16.083H10.0835V17.9164H11.9168V16.083Z" fill="white"/>
<path d="M8.24983 16.083H6.4165V17.9164H8.24983V16.083Z" fill="white"/>
</g>
<defs>
<clipPath id="clip0_456_252">
<rect width="22" height="22" fill="white" transform="translate(0 0.5)"/>
</clipPath>
</defs>
</svg>
