<svg width="25" height="24" viewBox="0 0 25 24" fill="none" xmlns="http://www.w3.org/2000/svg">
<g clip-path="url(#clip0_559_327)">
<path d="M12.103 2.16276C15.3091 2.16276 15.6854 2.17705 16.9526 2.23422C18.1245 2.28662 18.7581 2.48194 19.182 2.64867C19.7442 2.8678 20.1443 3.12505 20.5635 3.54426C20.9828 3.96348 21.2448 4.36364 21.4591 4.92576C21.6211 5.34974 21.8212 5.98333 21.8736 7.15522C21.9308 8.42239 21.945 8.79873 21.945 12.0048C21.945 15.2108 21.9308 15.5871 21.8736 16.8543C21.8212 18.0262 21.6259 18.6598 21.4591 19.0838C21.24 19.6459 20.9828 20.046 20.5635 20.4653C20.1443 20.8845 19.7442 21.1465 19.182 21.3609C18.7581 21.5228 18.1245 21.7229 16.9526 21.7753C15.6854 21.8325 15.3091 21.8468 12.103 21.8468C8.897 21.8468 8.52066 21.8325 7.25349 21.7753C6.08159 21.7229 5.44801 21.5276 5.02403 21.3609C4.4619 21.1417 4.06174 20.8845 3.64253 20.4653C3.22332 20.046 2.96131 19.6459 2.74694 19.0838C2.58497 18.6598 2.38489 18.0262 2.33248 16.8543C2.27532 15.5871 2.26103 15.2108 2.26103 12.0048C2.26103 8.79873 2.27532 8.42239 2.33248 7.15522C2.38489 5.98333 2.5802 5.34974 2.74694 4.92576C2.96607 4.36364 3.22332 3.96348 3.64253 3.54426C4.06174 3.12505 4.4619 2.86304 5.02403 2.64867C5.44801 2.4867 6.08159 2.28662 7.25349 2.23422C8.52066 2.17229 8.90176 2.16276 12.103 2.16276ZM12.103 0C8.8446 0 8.43491 0.0142914 7.15345 0.0714569C5.87675 0.128622 5.00498 0.333466 4.24277 0.628821C3.45198 0.933704 2.78505 1.34815 2.11811 2.01509C1.45118 2.68202 1.0415 3.35371 0.731849 4.13974C0.436493 4.90195 0.23165 5.77372 0.174484 7.05518C0.117319 8.33188 0.103027 8.74156 0.103027 12C0.103027 15.2584 0.117319 15.6681 0.174484 16.9496C0.23165 18.2263 0.436493 19.0981 0.731849 19.865C1.03673 20.6558 1.45118 21.3227 2.11811 21.9897C2.78505 22.6566 3.45674 23.0663 4.24277 23.3759C5.00498 23.6713 5.87675 23.8761 7.15821 23.9333C8.43967 23.9905 8.8446 24.0048 12.1078 24.0048C15.371 24.0048 15.7759 23.9905 17.0574 23.9333C18.3341 23.8761 19.2059 23.6713 19.9728 23.3759C20.7636 23.0711 21.4306 22.6566 22.0975 21.9897C22.7644 21.3227 23.1741 20.6511 23.4837 19.865C23.7791 19.1028 23.9839 18.231 24.0411 16.9496C24.0983 15.6681 24.1126 15.2632 24.1126 12C24.1126 8.7368 24.0983 8.33188 24.0411 7.05042C23.9839 5.77372 23.7791 4.90195 23.4837 4.13497C23.1789 3.34418 22.7644 2.67725 22.0975 2.01032C21.4306 1.34339 20.7589 0.933704 19.9728 0.624057C19.2106 0.328702 18.3388 0.123859 17.0574 0.0666931C15.7712 0.0142914 15.3615 0 12.103 0Z" fill="#B3A97F"/>
<path d="M12.1031 5.84033C8.70172 5.84033 5.93872 8.59857 5.93872 12.0047C5.93872 15.4108 8.69696 18.169 12.1031 18.169C15.5092 18.169 18.2674 15.4108 18.2674 12.0047C18.2674 8.59857 15.5092 5.84033 12.1031 5.84033ZM12.1031 16.0015C9.89267 16.0015 8.10148 14.2103 8.10148 11.9999C8.10148 9.78952 9.89267 7.99833 12.1031 7.99833C14.3135 7.99833 16.1047 9.78952 16.1047 11.9999C16.1047 14.2103 14.3135 16.0015 12.1031 16.0015Z" fill="#B3A97F"/>
<path d="M18.5104 7.03114C19.305 7.03114 19.9491 6.38703 19.9491 5.59247C19.9491 4.79792 19.305 4.15381 18.5104 4.15381C17.7159 4.15381 17.0718 4.79792 17.0718 5.59247C17.0718 6.38703 17.7159 7.03114 18.5104 7.03114Z" fill="#B3A97F"/>
</g>
<defs>
<clipPath id="clip0_559_327">
<rect width="24" height="24" fill="white" transform="translate(0.103027)"/>
</clipPath>
</defs>
</svg>
