<svg width="136" height="69" viewBox="0 0 136 69" fill="none" xmlns="http://www.w3.org/2000/svg">
<path fill-rule="evenodd" clip-rule="evenodd" d="M0.5 20.8633C0.5 9.81641 9.4541 0.863281 20.5 0.863281H115.497C126.542 0.863281 135.497 9.81641 135.497 20.8633V68.1992L107.854 68.1914C107.854 57.3164 107.807 55.9688 107.616 51.6953C107.426 47.4414 106.743 44.5352 105.758 41.9805C104.742 39.3438 103.361 37.1211 101.139 34.8984C98.9155 32.6758 96.6772 31.3125 94.0576 30.2773C91.5176 29.293 88.6118 28.6133 84.3413 28.4219C80.0547 28.2461 78.689 28.1992 67.8296 28.1992C56.9702 28.1992 55.605 28.2461 51.334 28.4375C47.0791 28.6289 44.1738 29.3125 41.6338 30.293C38.998 31.3125 36.7754 32.6914 34.5527 34.9141C34.3579 35.1094 34.1699 35.3047 33.9878 35.5L33.7358 35.7773L33.4526 36.0938C33.2632 36.3125 33.0806 36.5312 32.9053 36.7539C32.2827 37.5391 31.7461 38.3398 31.2739 39.168C30.915 39.7969 30.5933 40.4453 30.2993 41.1133C30.1724 41.4023 30.0503 41.6953 29.9326 41.9961C28.9482 44.5352 28.2656 47.4414 28.0752 51.7109L28.0044 53.3359C27.9395 54.9023 27.8979 56.2539 27.8726 58.3359C27.8462 60.4883 27.8369 63.4258 27.8369 68.1914L0.5 68.1992V20.8633ZM100.63 68.207H88.3735C88.3735 56.8555 79.1812 47.6641 67.8296 47.6641C56.4937 47.6641 47.2856 56.8555 47.2856 68.207H35.0288C35.0288 62.5039 35.0425 59.4883 35.084 57.2734C35.1206 55.3398 35.1782 54.0156 35.2671 52.0469C35.353 50.1328 35.5532 48.6484 35.8003 47.4648C36.0571 46.2383 36.3652 45.3359 36.6484 44.6172C37.3784 42.7422 38.2358 41.4102 39.6333 40.0117C41.0303 38.6133 42.3638 37.7422 44.2373 37.0273C45.6504 36.4883 47.7617 35.8203 51.6675 35.6445C53.2749 35.5664 54.4546 35.5117 55.8877 35.4766C58.2192 35.418 61.2217 35.4062 67.8296 35.4062C74.3364 35.4062 77.3457 35.4219 79.6582 35.4805C80.4629 35.5 81.1831 35.5273 81.937 35.5586L83.9917 35.6445C87.8975 35.8203 90.0093 36.4727 91.4219 37.0273C93.2954 37.7578 94.6289 38.6133 96.0264 40.0117C96.6021 40.5859 97.0889 41.1523 97.5117 41.7461C97.6431 41.9297 97.7686 42.1172 97.8887 42.3125C98.0151 42.5156 98.1353 42.7227 98.2505 42.9375C98.5293 43.4531 98.7783 44.0078 99.0112 44.6172C99.5508 46.0273 100.218 48.1406 100.392 52.0469C100.583 56.2695 100.63 57.5234 100.63 68.207ZM81.166 68.1914C81.166 60.8242 75.1963 54.8555 67.8296 54.8555C60.4629 54.8555 54.4937 60.8242 54.4937 68.1914H81.166ZM89.1836 51.6328C91.8315 51.6328 93.978 49.4844 93.978 46.8359C93.978 44.1914 91.8315 42.043 89.1836 42.043C86.5356 42.043 84.3887 44.1914 84.3887 46.8359C84.3887 49.4844 86.5356 51.6328 89.1836 51.6328Z" fill="url(#paint0_linear_715_424)"/>
<defs>
<linearGradient id="paint0_linear_715_424" x1="67.9983" y1="0.863281" x2="67.9983" y2="135.86" gradientUnits="userSpaceOnUse">
<stop offset="0.025" stop-color="#7F3BB1"/>
<stop offset="0.14" stop-color="#7F3BB1"/>
<stop offset="0.34" stop-color="#E31436"/>
<stop offset="0.9" stop-color="#F08517"/>
<stop offset="1" stop-color="#F9D002"/>
</linearGradient>
</defs>
</svg>
